{
    "packets": [
        {
            "pts_time": "0.000000",
            "flags": "K_"
        },
        {
            "pts_time": "0.066667",
            "flags": "__"
        },
        {
            "pts_time": "0.033333",
            "flags": "__"
        },
        {
            "pts_time": "0.016667",
            "flags": "__"
        },
        {
            "pts_time": "0.050000",
            "flags": "__"
        },
        {
            "pts_time": "0.133333",
            "flags": "__"
        },
        {
            "pts_time": "0.100000",
            "flags": "__"
        },
        {
            "pts_time": "0.083333",
            "flags": "__"
        },
        {
            "pts_time": "0.116667",
            "flags": "__"
        },
        {
            "pts_time": "0.183333",
            "flags": "__"
        },
        {
            "pts_time": "0.150000",
            "flags": "__"
        },
        {
            "pts_time": "0.166667",
            "flags": "__"
        },
        {
            "pts_time": "0.250000",
            "flags": "__"
        },
        {
            "pts_time": "0.216667",
            "flags": "__"
        },
        {
            "pts_time": "0.200000",
            "flags": "__"
        },
        {
            "pts_time": "0.233333",
            "flags": "__"
        },
        {
            "pts_time": "0.316667",
            "flags": "__"
        },
        {
            "pts_time": "0.283333",
            "flags": "__"
        },
        {
            "pts_time": "0.266667",
            "flags": "__"
        },
        {
            "pts_time": "0.300000",
            "flags": "__"
        },
        {
            "pts_time": "0.333333",
            "flags": "__"
        },
        {
            "pts_time": "0.350000",
            "flags": "__"
        },
        {
            "pts_time": "0.416667",
            "flags": "__"
        },
        {
            "pts_time": "0.383333",
            "flags": "__"
        },
        {
            "pts_time": "0.366667",
            "flags": "__"
        },
        {
            "pts_time": "0.400000",
            "flags": "__"
        },
        {
            "pts_time": "0.483333",
            "flags": "__"
        },
        {
            "pts_time": "0.450000",
            "flags": "__"
        },
        {
            "pts_time": "0.433333",
            "flags": "__"
        },
        {
            "pts_time": "0.466667",
            "flags": "__"
        },
        {
            "pts_time": "0.550000",
            "flags": "__"
        },
        {
            "pts_time": "0.516667",
            "flags": "__"
        },
        {
            "pts_time": "0.500000",
            "flags": "__"
        },
        {
            "pts_time": "0.533333",
            "flags": "__"
        },
        {
            "pts_time": "0.616667",
            "flags": "__"
        },
        {
            "pts_time": "0.583333",
            "flags": "__"
        },
        {
            "pts_time": "0.566667",
            "flags": "__"
        },
        {
            "pts_time": "0.600000",
            "flags": "__"
        },
        {
            "pts_time": "0.683333",
            "flags": "__"
        },
        {
            "pts_time": "0.650000",
            "flags": "__"
        },
        {
            "pts_time": "0.633333",
            "flags": "__"
        },
        {
            "pts_time": "0.666667",
            "flags": "__"
        },
        {
            "pts_time": "0.750000",
            "flags": "__"
        },
        {
            "pts_time": "0.716667",
            "flags": "__"
        },
        {
            "pts_time": "0.700000",
            "flags": "__"
        },
        {
            "pts_time": "0.733333",
            "flags": "__"
        },
        {
            "pts_time": "0.816667",
            "flags": "__"
        },
        {
            "pts_time": "0.783333",
            "flags": "__"
        },
        {
            "pts_time": "0.766667",
            "flags": "__"
        },
        {
            "pts_time": "0.800000",
            "flags": "__"
        },
        {
            "pts_time": "0.883333",
            "flags": "__"
        },
        {
            "pts_time": "0.850000",
            "flags": "__"
        },
        {
            "pts_time": "0.833333",
            "flags": "__"
        },
        {
            "pts_time": "0.866667",
            "flags": "__"
        },
        {
            "pts_time": "0.950000",
            "flags": "__"
        },
        {
            "pts_time": "0.916667",
            "flags": "__"
        },
        {
            "pts_time": "0.900000",
            "flags": "__"
        },
        {
            "pts_time": "0.933333",
            "flags": "__"
        },
        {
            "pts_time": "1.016667",
            "flags": "__"
        },
        {
            "pts_time": "0.983333",
            "flags": "__"
        },
        {
            "pts_time": "0.966667",
            "flags": "__"
        },
        {
            "pts_time": "1.000000",
            "flags": "__"
        },
        {
            "pts_time": "1.083333",
            "flags": "__"
        },
        {
            "pts_time": "1.050000",
            "flags": "__"
        },
        {
            "pts_time": "1.033333",
            "flags": "__"
        },
        {
            "pts_time": "1.066667",
            "flags": "__"
        },
        {
            "pts_time": "1.150000",
            "flags": "__"
        },
        {
            "pts_time": "1.116667",
            "flags": "__"
        },
        {
            "pts_time": "1.100000",
            "flags": "__"
        },
        {
            "pts_time": "1.133333",
            "flags": "__"
        },
        {
            "pts_time": "1.216667",
            "flags": "__"
        },
        {
            "pts_time": "1.183333",
            "flags": "__"
        },
        {
            "pts_time": "1.166667",
            "flags": "__"
        },
        {
            "pts_time": "1.200000",
            "flags": "__"
        },
        {
            "pts_time": "1.283333",
            "flags": "__"
        },
        {
            "pts_time": "1.250000",
            "flags": "__"
        },
        {
            "pts_time": "1.233333",
            "flags": "__"
        },
        {
            "pts_time": "1.266667",
            "flags": "__"
        },
        {
            "pts_time": "1.350000",
            "flags": "__"
        },
        {
            "pts_time": "1.316667",
            "flags": "__"
        },
        {
            "pts_time": "1.300000",
            "flags": "__"
        },
        {
            "pts_time": "1.333333",
            "flags": "__"
        },
        {
            "pts_time": "1.416667",
            "flags": "__"
        },
        {
            "pts_time": "1.383333",
            "flags": "__"
        },
        {
            "pts_time": "1.366667",
            "flags": "__"
        },
        {
            "pts_time": "1.400000",
            "flags": "__"
        },
        {
            "pts_time": "1.483333",
            "flags": "__"
        },
        {
            "pts_time": "1.450000",
            "flags": "__"
        },
        {
            "pts_time": "1.433333",
            "flags": "__"
        },
        {
            "pts_time": "1.466667",
            "flags": "__"
        },
        {
            "pts_time": "1.550000",
            "flags": "__"
        },
        {
            "pts_time": "1.516667",
            "flags": "__"
        },
        {
            "pts_time": "1.500000",
            "flags": "__"
        },
        {
            "pts_time": "1.533333",
            "flags": "__"
        },
        {
            "pts_time": "1.616667",
            "flags": "__"
        },
        {
            "pts_time": "1.583333",
            "flags": "__"
        },
        {
            "pts_time": "1.566667",
            "flags": "__"
        },
        {
            "pts_time": "1.600000",
            "flags": "__"
        },
        {
            "pts_time": "1.683333",
            "flags": "__"
        },
        {
            "pts_time": "1.650000",
            "flags": "__"
        },
        {
            "pts_time": "1.633333",
            "flags": "__"
        },
        {
            "pts_time": "1.666667",
            "flags": "__"
        },
        {
            "pts_time": "1.750000",
            "flags": "__"
        },
        {
            "pts_time": "1.716667",
            "flags": "__"
        },
        {
            "pts_time": "1.700000",
            "flags": "__"
        },
        {
            "pts_time": "1.733333",
            "flags": "__"
        },
        {
            "pts_time": "1.816667",
            "flags": "__"
        },
        {
            "pts_time": "1.783333",
            "flags": "__"
        },
        {
            "pts_time": "1.766667",
            "flags": "__"
        },
        {
            "pts_time": "1.800000",
            "flags": "__"
        },
        {
            "pts_time": "1.883333",
            "flags": "__"
        },
        {
            "pts_time": "1.850000",
            "flags": "__"
        },
        {
            "pts_time": "1.833333",
            "flags": "__"
        },
        {
            "pts_time": "1.866667",
            "flags": "__"
        },
        {
            "pts_time": "1.950000",
            "flags": "__"
        },
        {
            "pts_time": "1.916667",
            "flags": "__"
        },
        {
            "pts_time": "1.900000",
            "flags": "__"
        },
        {
            "pts_time": "1.933333",
            "flags": "__"
        },
        {
            "pts_time": "1.983333",
            "flags": "__"
        },
        {
            "pts_time": "1.966667",
            "flags": "__"
        }
    ]
}
